<svg width="56" height="64" viewBox="0 0 56 64" fill="none" xmlns="http://www.w3.org/2000/svg">
<path d="M28 63.5C28.75 63.5 29.625 63.375 30.375 62.875L53.5 49.625C55 48.75 55.875 47.125 55.875 45.375V18.75C55.875 17 55 15.375 53.5 14.5L30.375 1.125C28.875 0.375 27 0.375 25.5 1.125L2.5 14.5C1 15.375 0 17 0 18.75V45.375C0 47.125 1 48.75 2.5 49.625L8.5 53C11.375 54.5 12.5 54.5 13.875 54.5C18.125 54.5 20.625 51.875 20.625 47.25V21C20.625 20.625 20.375 20.375 20 20.375H17C16.625 20.375 16.375 20.625 16.375 21V47.25C16.375 49.375 14.25 51.375 10.875 49.625L4.5 46C4.25 45.875 4.125 45.625 4.125 45.375V18.75C4.125 18.5 4.25 18.25 4.5 18.125L27.625 4.75C27.75 4.625 28.125 4.625 28.25 4.75L51.375 18.125C51.625 18.25 51.75 18.5 51.75 18.75V45.375C51.75 45.625 51.625 45.875 51.375 46L28.25 59.375C28.125 59.5 27.75 59.5 27.625 59.375L21.625 55.75C21.5 55.75 21.25 55.625 21.125 55.75C19.5 56.75 19.125 56.75 17.625 57.375C17.25 57.5 16.625 57.75 17.75 58.375L25.5 62.875C26.25 63.375 27.125 63.5 28 63.5ZM46.625 37.25C46.625 32.25 43.25 31 36.125 30C29 29.125 28.25 28.625 28.25 26.875C28.25 25.5 28.875 23.75 34.125 23.75C38.875 23.75 40.625 24.75 41.375 27.875C41.375 28.25 41.75 28.5 42 28.5H45C45.25 28.5 45.375 28.375 45.5 28.25C45.625 28.125 45.625 27.875 45.625 27.75C45.25 22.25 41.5 19.625 34.125 19.625C27.5 19.625 23.625 22.375 23.625 27.125C23.625 32.125 27.5 33.5 33.875 34.125C41.375 34.875 42 36 42 37.5C42 40.125 39.875 41.125 35.125 41.125C29 41.125 27.625 39.625 27.125 36.625C27.125 36.25 26.875 36 26.5 36H23.5C23.125 36 22.875 36.375 22.875 36.75C22.875 40.625 25 45.25 35.125 45.25C42.375 45.25 46.625 42.375 46.625 37.25Z" fill="black"/>
</svg>
