<svg width="57" height="57" viewBox="0 0 57 57" fill="none" xmlns="http://www.w3.org/2000/svg">
<path d="M55.875 21.125C55 17.25 53.125 14.375 49.25 14.375H44.25V20.25C44.25 24.875 40.375 28.75 35.875 28.75H22.5C18.875 28.75 15.875 31.875 15.875 35.5V48.25C15.875 51.875 19 54 22.5 55C26.75 56.25 30.875 56.5 35.875 55C39.25 54.125 42.5 52.125 42.5 48.25V43.125H29.25V41.5H49.25C53.125 41.5 54.625 38.75 55.875 34.75C57.375 30.5 57.25 26.5 55.875 21.125ZM36.75 46.5C38.125 46.5 39.25 47.75 39.25 49.125C39.25 50.5 38.125 51.625 36.75 51.625C35.375 51.625 34.25 50.5 34.25 49.125C34.25 47.625 35.375 46.5 36.75 46.5ZM21.875 27.125H35.25C39 27.125 42 24 42 20.25V7.5C42 3.875 38.875 1.25 35.25 0.625C30.75 -0.125 25.875 -0.125 21.875 0.625C16.25 1.625 15.25 3.75 15.25 7.5V12.625H28.625V14.375H10.25C6.375 14.375 3 16.625 1.875 21.125C0.625 26.25 0.625 29.375 1.875 34.75C2.875 38.625 5.125 41.5 9 41.5H13.625V35.375C13.625 31 17.375 27.125 21.875 27.125ZM21.125 9.25C19.75 9.25 18.625 8.125 18.625 6.75C18.625 5.25 19.75 4.125 21.125 4.125C22.5 4.125 23.625 5.25 23.625 6.75C23.625 8.125 22.5 9.25 21.125 9.25Z" fill="black"/>
</svg>
